# xmcd CD database file
#
# Track frame offsets:
#	150
#	14159
#	33936
#	50557
#	66834
#	83414
#	104230
#	121956
#	138246
#
# Disc length: 2060 seconds
#
# Revision: 2
# Processed by: cddbd v1.5.1PL2 Copyright (c) Steve Scherf et al.
# Submitted via: CDex 1.51
#
DISCID=7a080a09
DTITLE=Aslihan Erkiþii - Ninni
DYEAR=2004
DGENRE=National Folk
TTITLE0=Benim Annem
TTITLE1=Kurban Olsun annesi
TTITLE2=Gel anne kucagina
TTITLE3=Ninnisini neledigim
TTITLE4=Kirmizi gül demet demet
TTITLE5=Dandini Dandini
TTITLE6=Kinali bebek
TTITLE7=Mama getir babasi
TTITLE8=Ninni bebek
EXTD=YEAR: 2004
EXTT0=
EXTT1=
EXTT2=
EXTT3=
EXTT4=
EXTT5=
EXTT6=
EXTT7=
EXTT8=
PLAYORDER=
